<?xml version="1.0" encoding="utf-8"?>
<!-- Generator: Adobe Illustrator 26.5.0, SVG Export Plug-In . SVG Version: 6.00 Build 0)  -->
<svg version="1.1" id="Camada_1" xmlns="http://www.w3.org/2000/svg" xmlns:xlink="http://www.w3.org/1999/xlink" x="0px" y="0px"
	 viewBox="0 0 274 94" style="enable-background:new 0 0 274 94;" xml:space="preserve">
<style type="text/css">
	.st0{fill:#DFDFF4;}
</style>
<g>
	<path class="st0" d="M12.8,10.63h27.81l-1.98,3.96H17.75v8.96h17.82v3.96H17.75v10.94l-4.95,1.98V10.63z"/>
	<path class="st0" d="M47.81,31.64c-2.19-0.06-3.51-0.36-3.96-0.9v1.3c-0.03,1.26,0.42,2.29,1.35,3.1c0.99,0.78,2.1,1.17,3.33,1.17
		h14.58l-1.39,4.1H46.91c-2.37,0.03-4.43-0.77-6.17-2.38c-0.81-0.69-1.45-1.51-1.91-2.48c-0.47-0.96-0.7-1.98-0.7-3.06v-5.76
		c0-2.25,0.87-4.09,2.61-5.53c1.71-1.62,3.75-2.41,6.12-2.39h9.31c1.74,0,3.22,0.2,4.43,0.58c1.21,0.39,2.11,0.92,2.7,1.58
		c0.58,0.66,1,1.32,1.24,1.98c0.24,0.66,0.36,1.38,0.36,2.16c0,0.63-0.04,1.21-0.14,1.73c-0.09,0.52-0.3,1.1-0.63,1.73
		c-0.33,0.63-0.78,1.16-1.35,1.58c-0.57,0.42-1.37,0.77-2.41,1.06c-1.04,0.29-2.27,0.43-3.71,0.43H47.81z M57.66,22.37h-9.54
		c-0.42,0-0.76,0-1.01,0c-0.26,0-0.62,0.05-1.08,0.16c-0.47,0.11-0.83,0.25-1.1,0.43s-0.52,0.45-0.74,0.81s-0.34,0.81-0.34,1.35
		c0,0.42,0.07,0.79,0.23,1.12c0.15,0.33,0.34,0.59,0.56,0.79c0.23,0.2,0.48,0.36,0.77,0.5c0.28,0.14,0.56,0.22,0.83,0.25
		c0.27,0.03,0.52,0.05,0.74,0.07c0.23,0.02,0.41,0.02,0.56,0.02h0.23h9c2.52,0,3.78-0.91,3.78-2.74c0-0.78-0.29-1.44-0.85-1.98
		C59.12,22.6,58.44,22.34,57.66,22.37z"/>
	<path class="st0" d="M78.59,18.86h8.1l-1.57,4.55H81.2c-2.28,0-4.22,0.8-5.81,2.41c-1.59,1.61-2.38,3.53-2.38,5.78v8.86h-5.85
		v-21.6h5.94l-0.04,3.83l0.9-1.26c0.51-0.78,1.18-1.4,2-1.87C76.78,19.1,77.66,18.86,78.59,18.86z"/>
	<path class="st0" d="M110.04,21.34c1.5,1.68,2.28,3.65,2.34,5.9v13.19h-5.62V27.55c0.06-1.23-0.36-2.26-1.26-3.1
		c-0.93-0.84-2.01-1.23-3.24-1.17h-2.97c-1.8,0.03-3.31,0.69-4.54,1.98c-1.23,1.29-1.83,2.83-1.8,4.64v10.53h-5.58V23.27l5.62-4.46
		v3.83l0.9-1.26c0.3-0.51,0.68-0.96,1.12-1.35c0.45-0.39,0.96-0.69,1.53-0.9c0.57-0.21,1.15-0.31,1.75-0.31h5.67
		c0.75-0.06,1.5,0,2.25,0.18c0.75,0.18,1.45,0.47,2.09,0.88S109.53,20.77,110.04,21.34z"/>
	<path class="st0" d="M140.06,20.48c1.32,1.65,1.87,3.51,1.67,5.58v14.35h-5.67v-2.75c-2.37,1.8-5.03,2.72-7.96,2.75h-6.62
		c-1.98,0.06-3.69-0.61-5.13-2.02c-1.32-1.23-1.98-2.75-1.98-4.54c-0.03-1.86,0.63-3.44,1.98-4.73c1.38-1.53,3.11-2.32,5.18-2.39
		h14.54v-0.18c0-0.93-0.35-1.71-1.04-2.34c-0.72-0.72-1.58-1.06-2.56-1.03H115.8l1.17-4.37h18.31
		C137.12,18.7,138.71,19.25,140.06,20.48z M136.05,33.44v-3.06h-12.6c-0.93,0-1.73,0.33-2.39,0.99c-0.63,0.63-0.94,1.4-0.94,2.29
		c0,0.87,0.3,1.64,0.9,2.29c0.72,0.66,1.56,0.99,2.52,0.99h4.27C131,36.83,133.74,35.66,136.05,33.44z"/>
	<path class="st0" d="M167.28,21.34c1.5,1.68,2.28,3.65,2.34,5.9v13.19H164V27.55c0.06-1.23-0.36-2.26-1.26-3.1
		c-0.93-0.84-2.01-1.23-3.24-1.17h-2.97c-1.8,0.03-3.32,0.69-4.54,1.98c-1.23,1.29-1.83,2.83-1.8,4.64v10.53h-5.58V23.27l5.62-4.46
		v3.83l0.9-1.26c0.3-0.51,0.68-0.96,1.12-1.35c0.45-0.39,0.96-0.69,1.53-0.9c0.57-0.21,1.15-0.31,1.75-0.31h5.67
		c0.75-0.06,1.5,0,2.25,0.18c0.75,0.18,1.45,0.47,2.09,0.88C166.19,20.28,166.77,20.77,167.28,21.34z"/>
	<path class="st0" d="M193.92,10.63l5.4,3.29v26.5h-5.4l-0.04-3.46c-0.3,0.66-0.71,1.25-1.24,1.78c-0.52,0.53-1.12,0.93-1.8,1.21
		c-0.68,0.29-1.37,0.44-2.09,0.47h-8.59c-2.19,0-4.1-0.73-5.72-2.21c-1.59-1.32-2.38-3.02-2.38-5.08v-7.06
		c0-2.07,0.81-3.75,2.43-5.04c1.56-1.5,3.43-2.23,5.62-2.21h9.54c1.8,0.12,3.22,0.93,4.28,2.43V10.63z M193.92,31.55v-3.78
		c0-1.32-0.47-2.44-1.39-3.38c-0.93-0.93-2.06-1.4-3.38-1.4h-7.34c-1.17-0.06-2.21,0.3-3.1,1.08c-0.87,0.75-1.29,1.71-1.26,2.88
		v5.22c-0.06,1.2,0.36,2.18,1.26,2.92c0.9,0.75,1.93,1.11,3.1,1.08h7.52c1.26,0,2.34-0.45,3.24-1.35
		C193.47,33.94,193.92,32.84,193.92,31.55z"/>
	<path class="st0" d="M207.47,15.53c-0.54,0.54-1.21,0.81-2,0.81c-0.8,0-1.47-0.28-2.03-0.83c-0.56-0.55-0.83-1.23-0.83-2.02
		c0-0.79,0.28-1.47,0.83-2.02c0.55-0.55,1.23-0.83,2.03-0.83c0.79,0,1.47,0.28,2.02,0.83c0.55,0.56,0.83,1.23,0.83,2.02
		C208.32,14.28,208.04,14.96,207.47,15.53z M208.32,40.42h-5.71v-21.6h5.71V40.42z"/>
	<path class="st0" d="M234.06,21.34c1.5,1.68,2.28,3.65,2.34,5.9v13.19h-5.62V27.55c0.06-1.23-0.36-2.26-1.26-3.1
		c-0.93-0.84-2.01-1.23-3.24-1.17h-2.97c-1.8,0.03-3.31,0.69-4.54,1.98c-1.23,1.29-1.83,2.83-1.8,4.64v10.53h-5.58V23.27l5.62-4.46
		v3.83l0.9-1.26c0.3-0.51,0.68-0.96,1.12-1.35c0.45-0.39,0.96-0.69,1.53-0.9c0.57-0.21,1.15-0.31,1.75-0.31h5.67
		c0.75-0.06,1.5,0,2.25,0.18c0.75,0.18,1.45,0.47,2.09,0.88S233.55,20.77,234.06,21.34z"/>
	<path class="st0" d="M248.42,31.64c-2.19-0.06-3.51-0.36-3.96-0.9v1.3c-0.03,1.26,0.42,2.29,1.35,3.1c0.99,0.78,2.1,1.17,3.33,1.17
		h14.58l-1.39,4.1h-14.81c-2.37,0.03-4.42-0.77-6.17-2.38c-0.81-0.69-1.45-1.51-1.91-2.48c-0.47-0.96-0.7-1.98-0.7-3.06v-5.76
		c0-2.25,0.87-4.09,2.61-5.53c1.71-1.62,3.75-2.41,6.12-2.39h9.32c1.74,0,3.22,0.2,4.43,0.58c1.21,0.39,2.12,0.92,2.7,1.58
		c0.58,0.66,1,1.32,1.24,1.98c0.24,0.66,0.36,1.38,0.36,2.16c0,0.63-0.04,1.21-0.14,1.73c-0.09,0.52-0.3,1.1-0.63,1.73
		c-0.33,0.63-0.78,1.16-1.35,1.58c-0.57,0.42-1.37,0.77-2.41,1.06c-1.04,0.29-2.27,0.43-3.71,0.43H248.42z M258.27,22.37h-9.54
		c-0.42,0-0.76,0-1.01,0s-0.62,0.05-1.08,0.16c-0.46,0.11-0.83,0.25-1.1,0.43c-0.27,0.18-0.52,0.45-0.74,0.81s-0.34,0.81-0.34,1.35
		c0,0.42,0.07,0.79,0.22,1.12s0.34,0.59,0.56,0.79c0.22,0.2,0.48,0.36,0.77,0.5c0.28,0.14,0.56,0.22,0.83,0.25
		c0.27,0.03,0.52,0.05,0.74,0.07c0.22,0.02,0.41,0.02,0.56,0.02h0.22h9c2.52,0,3.78-0.91,3.78-2.74c0-0.78-0.29-1.44-0.85-1.98
		C259.73,22.6,259.05,22.34,258.27,22.37z"/>
</g>
<g>
	<path class="st0" d="M83.88,53.63h30.82l-1.98,3.96h-10.93v25.88h-5V57.59H85.86L83.88,53.63z"/>
	<path class="st0" d="M121.09,74.64c-2.19-0.06-3.51-0.36-3.96-0.9v1.3c-0.03,1.26,0.42,2.29,1.35,3.1c0.99,0.78,2.1,1.17,3.33,1.17
		h14.58l-1.39,4.1h-14.81c-2.37,0.03-4.42-0.77-6.17-2.38c-0.81-0.69-1.45-1.51-1.91-2.48c-0.47-0.96-0.7-1.98-0.7-3.06v-5.76
		c0-2.25,0.87-4.09,2.61-5.53c1.71-1.62,3.75-2.41,6.12-2.39h9.32c1.74,0,3.22,0.2,4.43,0.58c1.21,0.39,2.12,0.92,2.7,1.58
		c0.58,0.66,1,1.32,1.24,1.98c0.24,0.66,0.36,1.38,0.36,2.16c0,0.63-0.04,1.21-0.13,1.73c-0.09,0.52-0.3,1.1-0.63,1.73
		s-0.78,1.16-1.35,1.58c-0.57,0.42-1.37,0.77-2.41,1.06c-1.03,0.29-2.27,0.43-3.71,0.43H121.09z M130.94,65.37h-9.54
		c-0.42,0-0.76,0-1.01,0c-0.26,0-0.62,0.05-1.08,0.16c-0.47,0.11-0.83,0.25-1.1,0.43c-0.27,0.18-0.52,0.45-0.74,0.81
		c-0.23,0.36-0.34,0.81-0.34,1.35c0,0.42,0.07,0.79,0.22,1.12s0.34,0.59,0.56,0.79c0.23,0.2,0.48,0.36,0.77,0.5
		c0.28,0.14,0.56,0.22,0.83,0.25c0.27,0.03,0.52,0.05,0.74,0.07c0.22,0.02,0.41,0.02,0.56,0.02h0.22h9c2.52,0,3.78-0.91,3.78-2.74
		c0-0.78-0.29-1.44-0.86-1.98C132.4,65.6,131.72,65.34,130.94,65.37z"/>
	<path class="st0" d="M150.38,78.83h13.32l1.49,4.59h-16.56c-2.37,0.03-4.42-0.77-6.17-2.38c-1.71-1.44-2.58-3.29-2.61-5.54v-5.76
		c0-2.25,0.87-4.09,2.61-5.53c1.71-1.62,3.75-2.41,6.12-2.39h16.61l-1.53,4.54h-13.27c-1.26-0.06-2.37,0.33-3.33,1.17
		c-0.96,0.84-1.41,1.91-1.35,3.19v3.78c-0.06,1.29,0.39,2.36,1.35,3.2C148.04,78.48,149.15,78.86,150.38,78.83z"/>
	<path class="st0" d="M191.87,64.2c1.71,1.41,2.56,3.23,2.56,5.44v13.77h-5.8V70.5c0.03-1.26-0.42-2.29-1.35-3.1
		c-0.96-0.84-2.07-1.23-3.33-1.17h-6.21c-1.32,0.03-2.44,0.52-3.35,1.46c-0.92,0.94-1.37,2.08-1.37,3.4v12.33h-5.8V57.14l5.8-3.51
		v10.94c1.11-1.62,2.66-2.53,4.63-2.75h8.1C188.12,61.79,190.16,62.58,191.87,64.2z"/>
</g>
</svg>
